<svg width="306" height="52" viewBox="0 0 306 52" fill="none" xmlns="http://www.w3.org/2000/svg">
<path d="M291.397 51.896C287.856 51.896 284.763 51.0427 282.117 49.336C279.472 47.5867 277.723 45.0267 276.87 41.656L283.717 38.648C284.443 40.696 285.403 42.168 286.598 43.064C287.835 43.9173 289.285 44.344 290.949 44.344C292.571 44.344 293.915 43.7467 294.982 42.552C296.048 41.3573 296.581 39.5867 296.581 37.24C296.581 34.2107 295.685 32.184 293.893 31.16C292.144 30.0933 289.648 29.56 286.405 29.56V23.288C289.136 23.288 291.376 22.6053 293.125 21.24C294.917 19.8747 295.835 17.848 295.878 15.16V15.096C295.878 13.3893 295.344 12.0453 294.277 11.064C293.211 10.0827 291.952 9.59201 290.501 9.59201C289.221 9.59201 288.027 9.99734 286.917 10.808C285.808 11.576 284.976 12.7067 284.421 14.2L278.021 10.552C279.429 7.60801 281.285 5.47467 283.589 4.152C285.893 2.78667 288.624 2.104 291.781 2.104C294.043 2.104 296.176 2.59467 298.181 3.576C300.187 4.51467 301.808 5.92267 303.046 7.80001C304.326 9.63467 304.965 11.832 304.965 14.392C304.965 17.1653 304.283 19.5333 302.917 21.496C301.552 23.416 299.547 24.824 296.901 25.72C299.589 26.5733 301.701 28.088 303.237 30.264C304.816 32.3973 305.605 35.0213 305.605 38.136C305.605 40.9947 304.944 43.4693 303.621 45.56C302.299 47.608 300.55 49.1867 298.374 50.296C296.24 51.3627 293.915 51.896 291.397 51.896Z" fill="black"/>
<path d="M245.158 51C245.67 44.8987 246.865 38.5413 248.742 31.928C250.62 25.3147 253.116 18.2533 256.23 10.744H240.615L241.318 3H267.238V9.656C263.526 16.9093 260.647 24.1413 258.599 31.352C256.551 38.52 255.526 45.0693 255.526 51H245.158Z" fill="black"/>
<path d="M207.648 51V43.128H213.792V14.712L207.2 16.12V9.4L218.144 3H222.752V43.128H229.024L228.64 51H207.648Z" fill="black"/>
<path d="M181.841 51.832C177.532 51.832 174.204 50.1253 171.857 46.712C169.553 43.2987 168.401 38.7547 168.401 33.08C168.401 27.448 169.553 22.9467 171.857 19.576C174.161 16.2053 177.489 14.52 181.841 14.52C186.15 14.52 189.478 16.2053 191.825 19.576C194.214 22.9467 195.409 27.448 195.409 33.08C195.409 38.712 194.214 43.256 191.825 46.712C189.478 50.1253 186.15 51.832 181.841 51.832ZM181.841 45.176C183.761 45.176 184.998 44.0027 185.553 41.656C186.108 39.3093 186.385 36.4293 186.385 33.016C186.385 29.6027 186.108 26.7227 185.553 24.376C184.998 22.0293 183.761 20.856 181.841 20.856C179.921 20.856 178.705 21.9653 178.193 24.184C177.681 26.4027 177.425 29.112 177.425 32.312C177.425 36.2373 177.681 39.3733 178.193 41.72C178.705 44.024 179.921 45.176 181.841 45.176Z" fill="black"/>
<path d="M148.26 10.36V1.08L157.22 0.440002V9.976L148.26 10.36ZM148.197 51.384V15.736L157.156 14.968V50.616L148.197 51.384Z" fill="black"/>
<path d="M118.719 51.832C111.807 51.832 108.352 45.56 108.352 33.016C108.352 26.488 109.205 21.7733 110.911 18.872C112.618 15.9707 115.285 14.52 118.911 14.52C120.447 14.52 121.919 15.032 123.327 16.056C124.735 17.0373 125.76 18.2747 126.4 19.768V4.152L135.424 3V50.616L128.639 51.384L126.4 46.52C125.973 48.0987 125.184 49.3787 124.032 50.36C122.88 51.3413 121.109 51.832 118.719 51.832ZM122.048 45.432C123.328 45.432 124.373 44.728 125.184 43.32C125.994 41.8693 126.4 39.4373 126.4 36.024V23.992C125.162 22.072 123.712 21.112 122.048 21.112C120.64 21.112 119.594 21.624 118.911 22.648C118.271 23.6293 117.845 24.9307 117.632 26.552C117.461 28.1733 117.376 30.328 117.376 33.016C117.376 35.7467 117.461 37.9653 117.632 39.672C117.845 41.3787 118.293 42.7653 118.976 43.832C119.658 44.8987 120.682 45.432 122.048 45.432Z" fill="black"/>
<path d="M78.0755 51.832C75.7288 51.832 73.8088 51.0213 72.3155 49.4C70.8222 47.736 70.0755 45.5173 70.0755 42.744V15.736L79.0355 14.968V39.096C79.0355 40.8027 79.3128 42.04 79.8675 42.808C80.4222 43.5333 81.2755 43.896 82.4275 43.896C83.3235 43.896 84.2835 43.6827 85.3075 43.256C86.3315 42.7867 87.2488 42.0613 88.0595 41.08V15.736L97.0835 14.968V50.616L88.0595 51.384V46.776C86.5662 48.4827 84.9235 49.7627 83.1315 50.616C81.3822 51.4267 79.6968 51.832 78.0755 51.832Z" fill="black"/>
<path d="M54.437 51.704C51.5357 51.704 49.0823 50.9787 47.077 49.528C45.0717 48.0347 44.069 45.4107 44.069 41.656V21.752H39.077L39.461 14.968H44.325L45.221 7.15999L53.029 6.07199V14.968H60.453L60.069 21.752H53.093V41.592C53.093 42.872 53.413 43.7893 54.053 44.344C54.693 44.8987 55.6317 45.176 56.869 45.176C57.5517 45.176 58.7037 45.048 60.325 44.792V51C60.1543 51.0427 59.4717 51.1707 58.277 51.384C57.125 51.5973 55.845 51.704 54.437 51.704Z" fill="black"/>
<path d="M16.152 51.896C12.2693 51.896 8.984 50.8293 6.296 48.696C3.65067 46.52 1.70933 43.6187 0.472 39.992L8.408 36.28L9.176 37.56C10.4133 39.6933 11.5867 41.3573 12.696 42.552C13.848 43.7467 15.2773 44.344 16.984 44.344C18.0933 44.344 19.0747 43.8107 19.928 42.744C20.824 41.6773 21.272 40.504 21.272 39.224C21.272 38.0293 20.9733 36.9413 20.376 35.96C19.7787 34.9787 19.0107 34.1893 18.072 33.592L9.688 28.6C7.256 27.2347 5.31467 25.5067 3.864 23.416C2.41333 21.3253 1.688 18.9787 1.688 16.376C1.688 13.6027 2.328 11.128 3.608 8.95201C4.93067 6.77601 6.70133 5.09067 8.92 3.896C11.1813 2.70134 13.72 2.104 16.536 2.104C19.8213 2.104 22.616 2.91467 24.92 4.53601C27.224 6.15734 28.9307 8.56801 30.04 11.768L22.104 15.352C21.9333 15.0107 21.5707 14.2427 21.016 13.048C20.4613 11.8533 19.7787 11 18.968 10.488C18.2 9.93334 17.24 9.65601 16.088 9.65601C14.68 9.65601 13.592 10.104 12.824 11C12.0987 11.896 11.736 13.048 11.736 14.456C11.736 15.48 12.0133 16.4187 12.568 17.272C13.1653 18.0827 13.8693 18.7227 14.68 19.192L22.424 23.736C28.1413 26.9787 31.1493 31.2453 31.448 36.536C31.448 39.5653 30.7653 42.2533 29.4 44.6C28.0773 46.904 26.2427 48.696 23.896 49.976C21.592 51.256 19.0107 51.896 16.152 51.896Z" fill="black"/>
</svg>
